# xmcd
#
# Track frame offsets: 
#        187
#        18772
#        37595
#        50575
#        63725
#        77460
#        96445
#        107675
#        122142
#        136635
#
# Disc length: 1999 seconds
#
# Revision: 1
# Processed by: cddbd v1.4PL0 Copyright (c) Steve Scherf et al.
# Submitted via: ExactAudioCopy v0.90a11
#
DISCID=7507cd0a
DTITLE=Williams, Don - The Best Of - Volume III
DYEAR=1900
DGENRE=
TTITLE0=I Believe In You
TTITLE1=Lord, I Hope This Day Is Good
TTITLE2=Lay Down Beside Me
TTITLE3=Mistakes
TTITLE4=Miracles
TTITLE5=Good Ole Boys Like Me
TTITLE6=It Must Be Love
TTITLE7=Listen To The Radio
TTITLE8=If Hollywood Don't Need You
TTITLE9=Love Me Over Again
EXTD=
EXTT0=
EXTT1=
EXTT2=
EXTT3=
EXTT4=
EXTT5=
EXTT6=
EXTT7=
EXTT8=
EXTT9=
PLAYORDER=
